<svg xmlns="http://www.w3.org/2000/svg" xmlns:xlink="http://www.w3.org/1999/xlink" version="1.1" x="0px" y="0px" width="100px" height="100px" viewBox="5.0 -10.0 100.0 135.0" enable-background="new 0 0 100 100" xml:space="preserve">
<g id="Captions">
</g>
<g id="Your_Icon">
	<path d="M44.874,17.377c-18.583,0-33.698,15.12-33.698,33.697c0,18.584,15.115,33.701,33.698,33.701   c18.577,0,33.699-15.117,33.699-33.701C78.573,32.497,63.451,17.377,44.874,17.377z M35.597,57.875   c-1.082,0-2.14-0.087-3.178-0.248l-9.53,4.031c0.108-0.303,0.973-3.812,2.302-6.856c-3.285-2.276-5.809-6.162-5.809-9.862   c0-7.671,3.549-11.777,14.937-11.777c8.892,0,11.921,2.419,15.056,7.362c-6.58,1.962-11.237,6.074-11.237,11.563   c0,1.604,0.894,3.521,1.62,5.029c0.042,0.086,0.089,0.184,0.127,0.271C38.521,57.703,37.083,57.875,35.597,57.875z M65.703,62.598   c1.175,2.057,2.079,4.236,2.68,6.795l-8.854-4.723c0,0-3.805,0.016-4.83,0.016c-6.298,0-10.35-1.826-12.571-6.417   c-0.644-1.333-1.5-4.546-1.5-5.977c0-4.904,2.655-6.977,8.163-9.718c2.29-1.146,6.353-1.998,9.924-1.713   c8.356,0.663,12.499,5.711,12.271,12.467c-0.118,3.373-1.839,6.346-5.094,8.598l-0.372,0.26L65.703,62.598z"/>
</g>
<text x="0.0" y="117.5" font-size="5.0" font-weight="bold" font-family="Helvetica Neue, Helvetica, Arial-Unicode, Arial, Sans-serif" fill="#000000">Created by Takao Umehara</text><text x="0.0" y="122.5" font-size="5.0" font-weight="bold" font-family="Helvetica Neue, Helvetica, Arial-Unicode, Arial, Sans-serif" fill="#000000">from the Noun Project</text></svg>