<svg xmlns="http://www.w3.org/2000/svg" xmlns:xlink="http://www.w3.org/1999/xlink" version="1.1" id="Layer_1" x="0px" y="0px" viewBox="-242.0 360.9 100.0 135.0" enable-background="new -247 370.9 100 100" xml:space="preserve" height="100px" width="100px">
<path d="M-178.8,407.4L-178.8,407.4c-4.9-4.9-12.8-4.9-17.7,0l-0.8,0.8l-0.8-0.8c-4.9-4.9-12.8-4.9-17.7,0l0,0  c-4.9,4.9-4.9,12.8,0,17.7l0.8,0.8l17.7,17.7l17.7-17.7l0.8-0.8C-173.9,420.4-173.9,412.3-178.8,407.4z"/>
<path d="M-198,405.6l-1.6-24.5c-0.3,0-0.7,0-1,0.1l2.2,24.1C-198.3,405.4-198.1,405.5-198,405.6z"/>
<path d="M-213.2,403.9l-11.3-11.8c-0.2,0.2-0.5,0.4-0.7,0.7l11.5,11.4C-213.6,404.1-213.4,404-213.2,403.9z"/>
<path d="M-209.2,402.6l-9.9-14.8c-0.3,0.2-0.6,0.4-0.9,0.6l10.2,14.3C-209.6,402.6-209.4,402.6-209.2,402.6z"/>
<path d="M-211.3,403.1l-10.7-13.3c-0.2,0.2-0.5,0.4-0.7,0.6l10.8,12.9C-211.7,403.2-211.5,403.1-211.3,403.1z"/>
<path d="M-199.5,404.5l-3.5-23c-0.3,0-0.6,0.1-1,0.2l4,22.5C-199.8,404.3-199.7,404.4-199.5,404.5z"/>
<path d="M-201.2,403.6l-5.2-21.4c-0.3,0.1-0.6,0.2-1,0.2l5.6,20.9C-201.6,403.4-201.4,403.5-201.2,403.6z"/>
<path d="M-203.1,402.9l-6.7-19.7c-0.3,0.1-0.6,0.2-0.9,0.3l7.1,19.3C-203.5,402.8-203.3,402.8-203.1,402.9z"/>
<path d="M-205.1,402.5l-7.9-18.1c-0.3,0.1-0.6,0.3-1,0.4l8.3,17.6C-205.4,402.4-205.3,402.5-205.1,402.5z"/>
<path d="M-207.1,402.4l-9-16.4c-0.3,0.2-0.6,0.3-0.9,0.5l9.3,16C-207.5,402.4-207.3,402.4-207.1,402.4z"/>
<path d="M-220.8,416.1l-15.2-3c-0.1,0.3-0.1,0.7-0.2,1l15.4,2.7C-220.8,416.5-220.8,416.3-220.8,416.1z"/>
<path d="M-220.6,414l-14.6-4.3c-0.1,0.3-0.2,0.6-0.3,0.9l14.8,3.9C-220.7,414.4-220.7,414.2-220.6,414z"/>
<path d="M-220.1,411.9l-14-5.4c-0.1,0.3-0.2,0.6-0.3,0.9l14.2,5.1C-220.3,412.3-220.2,412.1-220.1,411.9z"/>
<path d="M-220.7,418.3l-15.9-1.7c0,0.3-0.1,0.6-0.1,1l16.1,1.4C-220.7,418.7-220.7,418.5-220.7,418.3z"/>
<path d="M-215.1,405l-11.9-10.4c-0.2,0.2-0.4,0.5-0.6,0.7l12,10C-215.4,405.3-215.2,405.1-215.1,405z"/>
<path d="M-219.3,409.9l-13.4-6.7c-0.2,0.3-0.3,0.6-0.5,1l13.6,6.3C-219.4,410.2-219.4,410-219.3,409.9z"/>
<path d="M-216.8,406.4C-216.8,406.4-216.7,406.4-216.8,406.4l-12.3-9.2c-0.2,0.3-0.4,0.5-0.6,0.8l12.5,8.8  C-217,406.7-216.9,406.6-216.8,406.4z"/>
<path d="M-218.1,408l-12.9-7.9c-0.2,0.3-0.4,0.6-0.5,0.9l13.1,7.5C-218.4,408.4-218.2,408.2-218.1,408z"/>
<path d="M-191.8,403l5.9-20.4c-0.3-0.1-0.7-0.2-1-0.3l-5.5,20.8C-192.1,403.1-192,403-191.8,403z"/>
<path d="M-180,404.6l11.8-11.3c-0.2-0.2-0.5-0.5-0.7-0.7l-11.6,11.7C-180.4,404.4-180.2,404.5-180,404.6z"/>
<path d="M-174.7,411.1l14.2-6.3c-0.1-0.3-0.3-0.6-0.4-0.9l-14,6.7C-174.9,410.7-174.8,410.9-174.7,411.1z"/>
<path d="M-178.4,405.9l12.4-10c-0.2-0.2-0.4-0.5-0.6-0.7l-12.3,10.4C-178.7,405.6-178.5,405.8-178.4,405.9z"/>
<path d="M-174.1,413.1l14.9-5c-0.1-0.3-0.2-0.7-0.4-1l-14.6,5.4C-174.2,412.7-174.1,412.9-174.1,413.1z"/>
<path d="M-176.9,407.4l13-8.7c-0.2-0.3-0.4-0.5-0.6-0.8l-12.9,9.1C-177.2,407.1-177,407.3-176.9,407.4z"/>
<path d="M-174,419.4l16.8-1.1c0-0.3,0-0.6-0.1-0.9l-16.6,1.5C-174,419-174,419.2-174,419.4z"/>
<path d="M-173.8,417.3l16.1-2.5c0-0.3-0.1-0.6-0.2-0.9l-16,2.8C-173.7,416.9-173.7,417.1-173.8,417.3z"/>
<path d="M-196.7,405.7l0.5-24.6c-0.3,0-0.6,0-0.8,0h-0.1l0.1,25C-196.9,405.9-196.8,405.8-196.7,405.7z"/>
<path d="M-173.8,415.2l15.5-3.8c-0.1-0.3-0.2-0.7-0.3-1l-15.3,4.2C-173.8,414.8-173.8,415-173.8,415.2z"/>
<path d="M-189.9,402.6l7.3-18.8c-0.3-0.1-0.6-0.2-1-0.4l-6.9,19.3C-190.2,402.6-190.1,402.6-189.9,402.6z"/>
<path d="M-193.6,403.7l4.3-21.9c-0.3-0.1-0.6-0.1-1-0.2l-3.8,22.3C-193.9,403.8-193.7,403.8-193.6,403.7z"/>
<path d="M-220.3,420.4l-16.6-0.4c0,0.3,0,0.6,0,0.9v0l16.8,0C-220.1,420.7-220.2,420.5-220.3,420.4z"/>
<path d="M-195.2,404.6l2.5-23.3c-0.3,0-0.7-0.1-1-0.1l-2,23.7C-195.5,404.8-195.4,404.7-195.2,404.6z"/>
<path d="M-187.9,402.4l8.5-17.2c-0.3-0.1-0.6-0.3-0.9-0.4l-8.2,17.7C-188.3,402.4-188.1,402.4-187.9,402.4z"/>
<path d="M-183.8,402.9l10.4-14.1c-0.3-0.2-0.6-0.4-0.8-0.6l-10.1,14.6C-184.2,402.8-184,402.9-183.8,402.9z"/>
<path d="M-185.8,402.5l9.5-15.7c-0.3-0.2-0.6-0.3-0.9-0.5l-9.2,16.1C-186.2,402.4-186,402.5-185.8,402.5z"/>
<path d="M-181.9,403.6l11.1-12.7c-0.2-0.2-0.5-0.4-0.7-0.6l-10.9,13.1C-182.2,403.5-182,403.5-181.9,403.6z"/>
<path d="M-175.7,409.2l13.6-7.5c-0.2-0.3-0.3-0.6-0.5-0.9l-13.4,7.9C-175.9,408.8-175.8,409-175.7,409.2z"/>
<path d="M-186.1,434.5l14,17.5c0.2-0.2,0.5-0.4,0.7-0.6l-14.4-17.2L-186.1,434.5z"/>
<path d="M-188.4,436.7l10.5,19.1c0.3-0.2,0.6-0.3,0.8-0.5l-11-19L-188.4,436.7z"/>
<path d="M-187.2,435.6l12.3,18.5c0.3-0.2,0.5-0.4,0.8-0.5l-12.7-18.3L-187.2,435.6z"/>
<path d="M-185.1,433.4l15.5,16.3c0.2-0.2,0.5-0.5,0.7-0.7l-15.9-15.9L-185.1,433.4z"/>
<path d="M-195.5,443.9l1,16.7c0.3,0,0.7,0,1-0.1l-1.5-17.2L-195.5,443.9z"/>
<path d="M-184,432.4l16.9,14.8c0.2-0.2,0.4-0.5,0.6-0.7l-17.2-14.4L-184,432.4z"/>
<path d="M-193.8,442.2l2.7,18.1c0.3-0.1,0.7-0.1,1-0.2l-3.3-18.4L-193.8,442.2z"/>
<path d="M-190.8,439.2l6.5,19.5c0.3-0.1,0.7-0.2,1-0.4l-7.2-19.4L-190.8,439.2z"/>
<path d="M-189.5,437.9l8.5,19.5c0.3-0.1,0.6-0.3,0.9-0.4l-9.1-19.4L-189.5,437.9z"/>
<path d="M-192.2,440.6l4.6,19c0.3-0.1,0.6-0.2,0.9-0.2l-5.1-19.2L-192.2,440.6z"/>
<path d="M-177.8,426.2l-0.3,0.3l19.3,5.7c0.1-0.3,0.2-0.7,0.3-1l-19.2-5.1C-177.7,426.1-177.8,426.1-177.8,426.2z"/>
<path d="M-219.5,422.3l-17.3,1.1c0,0.3,0,0.6,0.1,1l17.5-1.5C-219.3,422.7-219.4,422.5-219.5,422.3z"/>
<path d="M-175.6,423.3l18.2,2c0-0.3,0.1-0.6,0.1-0.9l-18-1.6C-175.4,423-175.5,423.1-175.6,423.3z"/>
<path d="M-174.5,420.8c-0.1,0.2-0.1,0.4-0.2,0.6l17.5,0.5c0-0.3,0-0.7,0-1v-0.1L-174.5,420.8z"/>
<path d="M-176.7,425l18.8,3.8c0.1-0.3,0.1-0.6,0.2-0.9l-18.6-3.3C-176.5,424.7-176.6,424.8-176.7,425z"/>
<path d="M-181.8,430.2l18.8,11.5c0.2-0.3,0.3-0.5,0.5-0.8l-19-11L-181.8,430.2z"/>
<path d="M-180.6,429l19.4,9.6c0.1-0.3,0.3-0.6,0.4-0.9l-19.4-9L-180.6,429z"/>
<path d="M-179.4,427.8l19.5,7.6c0.1-0.3,0.2-0.6,0.3-0.9l-19.5-7.1L-179.4,427.8z"/>
<path d="M-182.9,431.3l18,13.2c0.2-0.2,0.3-0.5,0.5-0.7l-18.2-12.8L-182.9,431.3z"/>
<path d="M-213.2,429.7L-232,440c0.2,0.3,0.3,0.6,0.5,0.9l18.6-10.8L-213.2,429.7z"/>
<path d="M-212.1,430.9l-18.1,12.1c0.2,0.3,0.3,0.5,0.5,0.8l17.9-12.6L-212.1,430.9z"/>
<path d="M-210.9,432l-17.2,13.7c0.2,0.3,0.4,0.5,0.6,0.8l16.9-14.2L-210.9,432z"/>
<path d="M-214.4,428.5l-19.1,8.3c0.1,0.3,0.3,0.6,0.4,0.9l19-8.9L-214.4,428.5z"/>
<path d="M-209.8,433.1l-16,15.2c0.2,0.2,0.5,0.5,0.7,0.7l15.6-15.7L-209.8,433.1z"/>
<path d="M-218.4,424.2l-18,2.7c0.1,0.3,0.1,0.7,0.2,1l18.2-3.2C-218.2,424.5-218.3,424.3-218.4,424.2z"/>
<path d="M-215.7,427.2l-19,6.4c0.1,0.3,0.2,0.6,0.3,0.9l19.1-7L-215.7,427.2z"/>
<path d="M-216.8,426.2c-0.1-0.1-0.2-0.3-0.3-0.4l-18.6,4.5c0.1,0.3,0.2,0.7,0.3,1L-216.8,426.2L-216.8,426.2z"/>
<path d="M-205.3,437.7l-9.4,18.9c0.3,0.2,0.6,0.3,0.9,0.5l8.8-19L-205.3,437.7z"/>
<path d="M-202.7,440.3l-5.6,18.9c0.3,0.1,0.7,0.2,1,0.3l5-18.7L-202.7,440.3z"/>
<path d="M-201.2,441.8l-3.6,18.2c0.3,0.1,0.7,0.1,1,0.2l3.1-17.9L-201.2,441.8z"/>
<path d="M-208.7,434.2l-14.6,16.6c0.2,0.2,0.5,0.4,0.7,0.6l14.2-16.9L-208.7,434.2z"/>
<path d="M-199.5,443.4l-1.9,17.1c0.3,0,0.6,0.1,0.9,0.1l1.5-16.6L-199.5,443.4z"/>
<path d="M-204,438.9l-7.5,19.1c0.3,0.1,0.6,0.2,0.9,0.3l7-19.1L-204,438.9z"/>
<path d="M-207.6,435.3l-13,17.7c0.3,0.2,0.5,0.4,0.8,0.5l12.6-17.9L-207.6,435.3z"/>
<polygon points="-197.3,445.7 -197.6,445.4 -198,460.7 -196.5,460.6 -196.9,445.3 "/>
<path d="M-206.5,436.5l-11.3,18.4c0.3,0.2,0.6,0.4,0.9,0.5l10.7-18.7L-206.5,436.5z"/>
<text x="-247.0" y="488.4" font-size="5.0" font-weight="bold" font-family="Helvetica Neue, Helvetica, Arial-Unicode, Arial, Sans-serif" fill="#000000">Created by EliRatus</text><text x="-247.0" y="493.4" font-size="5.0" font-weight="bold" font-family="Helvetica Neue, Helvetica, Arial-Unicode, Arial, Sans-serif" fill="#000000">from the Noun Project</text></svg>